<svg width="10" height="10" viewBox="0 0 10 10" fill="none" xmlns="http://www.w3.org/2000/svg">
<path d="M4.16683 7.50001C4.9064 7.49986 5.62466 7.25227 6.20725 6.79668L8.03891 8.62834L8.62808 8.03918L6.79641 6.20751C7.25225 5.62487 7.49998 4.90644 7.50016 4.16668C7.50016 2.32876 6.00475 0.833344 4.16683 0.833344C2.32891 0.833344 0.833496 2.32876 0.833496 4.16668C0.833496 6.00459 2.32891 7.50001 4.16683 7.50001ZM4.16683 1.66668C5.54558 1.66668 6.66683 2.78793 6.66683 4.16668C6.66683 5.54543 5.54558 6.66668 4.16683 6.66668C2.78808 6.66668 1.66683 5.54543 1.66683 4.16668C1.66683 2.78793 2.78808 1.66668 4.16683 1.66668Z" fill="#8E8E8E"/>
</svg>
